<svg width="358" height="502" viewBox="0 0 358 502" fill="none" xmlns="http://www.w3.org/2000/svg">
<path fill-rule="evenodd" clip-rule="evenodd" d="M0.000274658 17.6C0.000274658 11.4394 0.000274658 8.35913 1.1992 6.0061C2.25381 3.93632 3.9366 2.25354 6.00638 1.19893C8.35941 0 11.4397 0 17.6003 0H340.399C346.56 0 349.64 0 351.993 1.19893C354.063 2.25354 355.746 3.93632 356.801 6.0061C357.999 8.35913 357.999 11.4394 357.999 17.6V122.127C355.654 122.494 353.86 124.521 353.86 126.967C353.86 129.413 355.654 131.44 357.999 131.807V484.4C357.999 490.561 357.999 493.641 356.801 495.994C355.746 498.064 354.063 499.746 351.993 500.801C349.64 502 346.56 502 340.399 502H17.6003C11.4397 502 8.35941 502 6.00638 500.801C3.9366 499.746 2.25381 498.064 1.1992 495.994C0.000274658 493.641 0.000274658 490.561 0.000274658 484.4V131.807C0.249375 131.846 0.504694 131.866 0.764741 131.866C3.4728 131.866 5.66812 129.673 5.66812 126.967C5.66812 124.262 3.4728 122.068 0.764741 122.068C0.504694 122.068 0.249375 122.089 0.000274658 122.128V17.6Z" fill="#579B52"/>
</svg>
